<svg width="14" height="15" viewBox="0 0 14 15" fill="none" xmlns="http://www.w3.org/2000/svg">
<mask id="mask0_88_6109" style="mask-type:alpha" maskUnits="userSpaceOnUse" x="0" y="0" width="14" height="15">
<rect y="0.5" width="14" height="14" fill="#D9D9D9"/>
</mask>
<g mask="url(#mask0_88_6109)">
<path d="M2.40087 13.0417L2.40087 6.69223H1.4585L1.4585 3.65233L4.47506 3.65233C4.39281 3.55735 4.33691 3.45036 4.30735 3.33136C4.2778 3.21245 4.26302 3.08757 4.26302 2.95671C4.26302 2.52047 4.4157 2.14967 4.72108 1.84429C5.02645 1.53892 5.39726 1.38623 5.8335 1.38623C6.05711 1.38623 6.26429 1.43314 6.45504 1.52696C6.64569 1.62088 6.81617 1.74634 6.96648 1.90335C7.11678 1.74031 7.28731 1.61339 7.47806 1.52258C7.66871 1.43168 7.87584 1.38623 8.09946 1.38623C8.53579 1.38623 8.90664 1.53892 9.21202 1.84429C9.51739 2.14967 9.67008 2.52047 9.67008 2.95671C9.67008 3.08611 9.6538 3.20915 9.62123 3.32581C9.58866 3.44248 9.53426 3.55132 9.45804 3.65233L12.5418 3.65233V6.69223H11.5995L11.5995 13.0417L2.40087 13.0417ZM8.09946 2.26123C7.90239 2.26123 7.73721 2.32788 7.60391 2.46117C7.47062 2.59446 7.40398 2.75964 7.40398 2.95671C7.40398 3.15378 7.47062 3.31896 7.60391 3.45225C7.73721 3.58564 7.90239 3.65233 8.09946 3.65233C8.29652 3.65233 8.46175 3.58564 8.59514 3.45225C8.72843 3.31896 8.79508 3.15378 8.79508 2.95671C8.79508 2.75964 8.72843 2.59446 8.59514 2.46117C8.46175 2.32788 8.29652 2.26123 8.09946 2.26123ZM5.13802 2.95671C5.13802 3.15378 5.20466 3.31896 5.33795 3.45225C5.47125 3.58564 5.63643 3.65233 5.8335 3.65233C6.03057 3.65233 6.19575 3.58564 6.32904 3.45225C6.46233 3.31896 6.52898 3.15378 6.52898 2.95671C6.52898 2.75964 6.46233 2.59446 6.32904 2.46117C6.19575 2.32788 6.03057 2.26123 5.8335 2.26123C5.63643 2.26123 5.47125 2.32788 5.33795 2.46117C5.20466 2.59446 5.13802 2.75964 5.13802 2.95671ZM2.3335 4.52719L2.3335 5.81738L6.56266 5.81738V4.52719L2.3335 4.52719ZM6.56266 12.1667L6.56266 6.69223L3.27573 6.69223L3.27573 12.1667H6.56266ZM7.43766 12.1667H10.7246L10.7246 6.69223L7.43766 6.69223L7.43766 12.1667ZM11.6668 5.81738V4.52719L7.43766 4.52719V5.81738L11.6668 5.81738Z" fill="#1C1B1F"/>
</g>
</svg>
