<svg width="24" height="24" viewBox="0 0 24 24" fill="none" xmlns="http://www.w3.org/2000/svg">
<mask id="mask0_22_600" style="mask-type:alpha" maskUnits="userSpaceOnUse" x="0" y="0" width="24" height="24">
<rect width="24" height="24" fill="#D9D9D9"/>
</mask>
<g mask="url(#mask0_22_600)">
<path d="M4.1155 21.5V10.6153H2.5V5.40404H7.67125C7.53025 5.2412 7.43442 5.05779 7.38375 4.85379C7.33308 4.64995 7.30775 4.43587 7.30775 4.21154C7.30775 3.4637 7.5695 2.82804 8.093 2.30454C8.6165 1.78104 9.25217 1.51929 10 1.51929C10.3833 1.51929 10.7385 1.5997 11.0655 1.76054C11.3923 1.92154 11.6846 2.13662 11.9423 2.40579C12.1999 2.12629 12.4923 1.9087 12.8193 1.75304C13.1461 1.5972 13.5012 1.51929 13.8845 1.51929C14.6325 1.51929 15.2682 1.78104 15.7917 2.30454C16.3153 2.82804 16.577 3.4637 16.577 4.21154C16.577 4.43337 16.5491 4.64429 16.4932 4.84429C16.4374 5.04429 16.3442 5.23087 16.2135 5.40404H21.5V10.6153H19.8845V21.5H4.1155ZM13.8845 3.01929C13.5467 3.01929 13.2635 3.13354 13.035 3.36204C12.8065 3.59054 12.6923 3.8737 12.6923 4.21154C12.6923 4.54937 12.8065 4.83254 13.035 5.06104C13.2635 5.2897 13.5467 5.40404 13.8845 5.40404C14.2223 5.40404 14.5056 5.2897 14.7343 5.06104C14.9628 4.83254 15.077 4.54937 15.077 4.21154C15.077 3.8737 14.9628 3.59054 14.7343 3.36204C14.5056 3.13354 14.2223 3.01929 13.8845 3.01929ZM8.80775 4.21154C8.80775 4.54937 8.922 4.83254 9.1505 5.06104C9.379 5.2897 9.66217 5.40404 10 5.40404C10.3378 5.40404 10.621 5.2897 10.8495 5.06104C11.078 4.83254 11.1923 4.54937 11.1923 4.21154C11.1923 3.8737 11.078 3.59054 10.8495 3.36204C10.621 3.13354 10.3378 3.01929 10 3.01929C9.66217 3.01929 9.379 3.13354 9.1505 3.36204C8.922 3.59054 8.80775 3.8737 8.80775 4.21154ZM4 6.90379V9.11554H11.25V6.90379H4ZM11.25 20V10.6153H5.61525V20H11.25ZM12.75 20H18.3848V10.6153H12.75V20ZM20 9.11554V6.90379H12.75V9.11554H20Z" fill="url(#paint0_linear_22_600)"/>
</g>
<defs>
<linearGradient id="paint0_linear_22_600" x1="2.5" y1="11.5097" x2="21.5" y2="11.5097" gradientUnits="userSpaceOnUse">
<stop stop-color="#DCE35B"/>
<stop offset="1" stop-color="#45B649"/>
</linearGradient>
</defs>
</svg>
