<svg width="15" height="16" viewBox="0 0 15 16" fill="none" xmlns="http://www.w3.org/2000/svg">
<mask id="mask0_205_477" style="mask-type:alpha" maskUnits="userSpaceOnUse" x="0" y="0" width="15" height="16">
<rect y="0.5" width="15" height="15" fill="#D9D9D9"/>
</mask>
<g mask="url(#mask0_205_477)">
<path d="M2.5 7.7475H12.5V5.7525H2.5V7.7475ZM12.0312 14.0938V12.2188H10.1562V11.2812H12.0312V9.40625H12.9688V11.2812H14.8438V12.2188H12.9688V14.0938H12.0312ZM2.69234 12.6875C2.37661 12.6875 2.10938 12.5781 1.89063 12.3594C1.67188 12.1406 1.5625 11.8734 1.5625 11.5577V4.44234C1.5625 4.12661 1.67188 3.85938 1.89063 3.64063C2.10938 3.42188 2.37661 3.3125 2.69234 3.3125H12.3077C12.6234 3.3125 12.8906 3.42188 13.1094 3.64063C13.3281 3.85938 13.4375 4.12661 13.4375 4.44234V8.15625H12.0312C11.1667 8.15625 10.4297 8.46094 9.82031 9.07031C9.21094 9.67969 8.90625 10.4167 8.90625 11.2812V12.6875H2.69234Z" fill="white"/>
</g>
</svg>
