<svg width="15" height="15" viewBox="0 0 15 15" fill="none" xmlns="http://www.w3.org/2000/svg">
<mask id="mask0_142_708" style="mask-type:alpha" maskUnits="userSpaceOnUse" x="0" y="0" width="15" height="15">
<rect width="15" height="15" fill="#D9D9D9"/>
</mask>
<g mask="url(#mask0_142_708)">
<path d="M7.50141 9.73562C8.20964 9.73562 8.81115 9.48776 9.30594 8.99203C9.80073 8.4963 10.0481 7.89432 10.0481 7.18609C10.0481 6.47786 9.80026 5.87635 9.30453 5.38156C8.8088 4.88677 8.20682 4.63937 7.49859 4.63937C6.79037 4.63937 6.18886 4.88724 5.69406 5.38297C5.19927 5.8787 4.95188 6.48068 4.95188 7.18891C4.95188 7.89714 5.19974 8.49865 5.69547 8.99344C6.1912 9.48823 6.79318 9.73562 7.50141 9.73562ZM7.5 8.875C7.03125 8.875 6.63281 8.71094 6.30469 8.38281C5.97656 8.05469 5.8125 7.65625 5.8125 7.1875C5.8125 6.71875 5.97656 6.32031 6.30469 5.99219C6.63281 5.66406 7.03125 5.5 7.5 5.5C7.96875 5.5 8.36719 5.66406 8.69531 5.99219C9.02344 6.32031 9.1875 6.71875 9.1875 7.1875C9.1875 7.65625 9.02344 8.05469 8.69531 8.38281C8.36719 8.71094 7.96875 8.875 7.5 8.875ZM7.50078 11.5625C6.06359 11.5625 4.75406 11.166 3.57219 10.3731C2.39031 9.58031 1.5201 8.51844 0.961563 7.1875C1.5201 5.85656 2.39 4.79469 3.57125 4.00187C4.7526 3.20896 6.06193 2.8125 7.49922 2.8125C8.93641 2.8125 10.2459 3.20896 11.4278 4.00187C12.6097 4.79469 13.4799 5.85656 14.0384 7.1875C13.4799 8.51844 12.61 9.58031 11.4288 10.3731C10.2474 11.166 8.93807 11.5625 7.50078 11.5625ZM7.5 10.625C8.67708 10.625 9.75781 10.3151 10.7422 9.69531C11.7266 9.07552 12.4792 8.23958 13 7.1875C12.4792 6.13542 11.7266 5.29948 10.7422 4.67969C9.75781 4.0599 8.67708 3.75 7.5 3.75C6.32292 3.75 5.24219 4.0599 4.25781 4.67969C3.27344 5.29948 2.52083 6.13542 2 7.1875C2.52083 8.23958 3.27344 9.07552 4.25781 9.69531C5.24219 10.3151 6.32292 10.625 7.5 10.625Z" fill="white"/>
</g>
</svg>
