<svg width="16" height="15" viewBox="0 0 16 15" fill="none" xmlns="http://www.w3.org/2000/svg">
<g opacity="0.2">
<mask id="mask0_17_150" style="mask-type:alpha" maskUnits="userSpaceOnUse" x="0" y="0" width="16" height="15">
<rect x="0.699951" width="15" height="15" fill="#D9D9D9"/>
</mask>
<g mask="url(#mask0_17_150)">
<path d="M7.7312 10.4688H8.6687V6.875H7.7312V10.4688ZM8.19995 5.80531C8.34297 5.80531 8.46287 5.75693 8.55964 5.66016C8.65641 5.56339 8.70479 5.44349 8.70479 5.30047C8.70479 5.15745 8.65641 5.03755 8.55964 4.94078C8.46287 4.84412 8.34297 4.79578 8.19995 4.79578C8.05693 4.79578 7.93703 4.84412 7.84026 4.94078C7.74349 5.03755 7.69511 5.15745 7.69511 5.30047C7.69511 5.44349 7.74349 5.56339 7.84026 5.66016C7.93703 5.75693 8.05693 5.80531 8.19995 5.80531ZM8.20105 13.4375C7.3798 13.4375 6.60787 13.2817 5.88526 12.97C5.16266 12.6583 4.53412 12.2354 3.99964 11.7011C3.46516 11.1668 3.04198 10.5385 2.73011 9.81625C2.41834 9.09396 2.26245 8.32224 2.26245 7.50109C2.26245 6.67984 2.41828 5.90792 2.72995 5.18531C3.04162 4.46271 3.46459 3.83417 3.99886 3.29969C4.53313 2.76521 5.16141 2.34203 5.8837 2.03016C6.60599 1.71839 7.37771 1.5625 8.19886 1.5625C9.02011 1.5625 9.79204 1.71833 10.5146 2.03C11.2372 2.34167 11.8658 2.76464 12.4003 3.29891C12.9347 3.83318 13.3579 4.46146 13.6698 5.18375C13.9816 5.90604 14.1375 6.67776 14.1375 7.49891C14.1375 8.32016 13.9816 9.09208 13.67 9.81469C13.3583 10.5373 12.9353 11.1658 12.401 11.7003C11.8668 12.2348 11.2385 12.658 10.5162 12.9698C9.79391 13.2816 9.02219 13.4375 8.20105 13.4375Z" fill="white"/>
</g>
</g>
</svg>
