<svg width="16" height="15" viewBox="0 0 16 15" fill="none" xmlns="http://www.w3.org/2000/svg">
<g opacity="0.2">
<mask id="mask0_19_259" style="mask-type:alpha" maskUnits="userSpaceOnUse" x="0" y="0" width="16" height="15">
<rect x="0.700012" width="15" height="15" fill="#D9D9D9"/>
</mask>
<g mask="url(#mask0_19_259)">
<path d="M7.73126 10.4688H8.66876V7.96875H11.1688V7.03125H8.66876V4.53125H7.73126V7.03125H5.23126V7.96875H7.73126V10.4688ZM8.20111 13.4375C7.37986 13.4375 6.60793 13.2817 5.88532 12.97C5.16272 12.6583 4.53418 12.2354 3.9997 11.7011C3.46522 11.1668 3.04204 10.5385 2.73017 9.81625C2.4184 9.09396 2.26251 8.32224 2.26251 7.50109C2.26251 6.67984 2.41835 5.90792 2.73001 5.18531C3.04168 4.46271 3.46465 3.83417 3.99892 3.29969C4.53319 2.76521 5.16147 2.34203 5.88376 2.03016C6.60605 1.71839 7.37777 1.5625 8.19892 1.5625C9.02017 1.5625 9.7921 1.71833 10.5147 2.03C11.2373 2.34167 11.8658 2.76464 12.4003 3.29891C12.9348 3.83318 13.358 4.46146 13.6699 5.18375C13.9816 5.90604 14.1375 6.67776 14.1375 7.49891C14.1375 8.32016 13.9817 9.09208 13.67 9.81469C13.3583 10.5373 12.9354 11.1658 12.4011 11.7003C11.8668 12.2348 11.2386 12.658 10.5163 12.9698C9.79397 13.2816 9.02225 13.4375 8.20111 13.4375Z" fill="white"/>
</g>
</g>
</svg>
