<svg width="24" height="25" viewBox="0 0 24 25" fill="none" xmlns="http://www.w3.org/2000/svg">
<mask id="mask0_96_5646" style="mask-type:alpha" maskUnits="userSpaceOnUse" x="0" y="0" width="24" height="25">
<rect y="0.5" width="24" height="24" fill="#D9D9D9"/>
</mask>
<g mask="url(#mask0_96_5646)">
<path d="M11.2923 19.3078H12.6578V18.0962C13.4334 17.9911 14.1357 17.6997 14.7645 17.222C15.3933 16.7445 15.7078 16.0205 15.7078 15.05C15.7078 14.35 15.5013 13.7308 15.0885 13.1923C14.6757 12.6539 13.8692 12.1681 12.6692 11.7348C11.6179 11.3758 10.9198 11.0648 10.575 10.802C10.2302 10.5392 10.0578 10.1718 10.0578 9.7C10.0578 9.22817 10.2343 8.84483 10.5875 8.55C10.9407 8.25517 11.4282 8.10775 12.05 8.10775C12.5705 8.10775 12.9903 8.2305 13.3095 8.476C13.6288 8.7215 13.8744 9.0295 14.0462 9.4L15.2807 8.90375C15.0717 8.37175 14.7311 7.91633 14.2587 7.5375C13.7863 7.15867 13.2692 6.94742 12.7078 6.90375V5.69225H11.3422V6.90375C10.4897 7.06792 9.835 7.41375 9.378 7.94125C8.92083 8.46892 8.69225 9.05517 8.69225 9.7C8.69225 10.4513 8.91983 11.0558 9.375 11.5135C9.83017 11.9712 10.5718 12.3846 11.6 12.7537C12.6628 13.1436 13.3888 13.4933 13.778 13.803C14.167 14.1125 14.3615 14.5282 14.3615 15.05C14.3615 15.677 14.1353 16.1324 13.6827 16.4163C13.2301 16.7003 12.7192 16.8422 12.15 16.8422C11.5872 16.8422 11.0837 16.6731 10.6395 16.3348C10.1952 15.9963 9.85375 15.5013 9.61525 14.85L8.35 15.3655C8.609 16.1077 8.98108 16.6973 9.46625 17.1345C9.95158 17.5717 10.5603 17.8756 11.2923 18.0462V19.3078ZM12 22C10.6872 22 9.45292 21.7503 8.29725 21.251C7.14142 20.7517 6.13592 20.0744 5.28075 19.2193C4.42558 18.3641 3.74833 17.3586 3.249 16.2028C2.74967 15.0471 2.5 13.8128 2.5 12.5C2.5 11.1872 2.74967 9.95292 3.249 8.79725C3.74833 7.64142 4.42558 6.63592 5.28075 5.78075C6.13592 4.92558 7.14142 4.24833 8.29725 3.749C9.45292 3.24967 10.6872 3 12 3C13.3128 3 14.5471 3.24967 15.7028 3.749C16.8586 4.24833 17.8641 4.92558 18.7193 5.78075C19.5744 6.63592 20.2517 7.64142 20.751 8.79725C21.2503 9.95292 21.5 11.1872 21.5 12.5C21.5 13.8128 21.2503 15.0471 20.751 16.2028C20.2517 17.3586 19.5744 18.3641 18.7193 19.2193C17.8641 20.0744 16.8586 20.7517 15.7028 21.251C14.5471 21.7503 13.3128 22 12 22ZM12 20.5C14.2333 20.5 16.125 19.725 17.675 18.175C19.225 16.625 20 14.7333 20 12.5C20 10.2667 19.225 8.375 17.675 6.825C16.125 5.275 14.2333 4.5 12 4.5C9.76667 4.5 7.875 5.275 6.325 6.825C4.775 8.375 4 10.2667 4 12.5C4 14.7333 4.775 16.625 6.325 18.175C7.875 19.725 9.76667 20.5 12 20.5Z" fill="url(#paint0_linear_96_5646)"/>
</g>
<defs>
<linearGradient id="paint0_linear_96_5646" x1="2.5" y1="12.5" x2="21.5" y2="12.5" gradientUnits="userSpaceOnUse">
<stop stop-color="#DCE35B"/>
<stop offset="1" stop-color="#45B649"/>
</linearGradient>
</defs>
</svg>
