<svg width="24" height="24" viewBox="0 0 24 24" fill="none" xmlns="http://www.w3.org/2000/svg">
<mask id="mask0_96_5641" style="mask-type:alpha" maskUnits="userSpaceOnUse" x="0" y="0" width="24" height="24">
<rect width="24" height="24" fill="#D9D9D9"/>
</mask>
<g mask="url(#mask0_96_5641)">
<path d="M17.8517 9.29679C17.0813 9.29679 16.4139 9.05936 15.8496 8.5845C15.2854 8.10979 14.928 7.512 14.7776 6.79114H9.201C9.07686 7.40214 8.79693 7.92686 8.36121 8.36529C7.9255 8.80386 7.40214 9.08522 6.79114 9.20936V14.7776C7.512 14.928 8.10979 15.2854 8.5845 15.8496C9.05936 16.4139 9.29679 17.0813 9.29679 17.8517C9.29679 18.7231 8.98986 19.4657 8.376 20.0794C7.76229 20.6931 7.01971 21 6.14829 21C5.27686 21 4.53429 20.6931 3.92057 20.0794C3.30686 19.4657 3 18.7231 3 17.8517C3 17.0813 3.23736 16.4139 3.71207 15.8496C4.18679 15.2854 4.78457 14.928 5.50543 14.7776V9.20936C4.78457 9.05879 4.18679 8.70136 3.71207 8.13707C3.23736 7.57279 3 6.90986 3 6.14829C3 5.27686 3.30686 4.53429 3.92057 3.92057C4.53429 3.30686 5.27414 3 6.14014 3C6.90171 3 7.56464 3.23736 8.12893 3.71207C8.69321 4.18679 9.05057 4.78457 9.201 5.50543H14.7776C14.928 4.78457 15.2854 4.18679 15.8496 3.71207C16.4139 3.23736 17.0813 3 17.8517 3C18.7176 3 19.4587 3.30829 20.0751 3.92486C20.6917 4.54129 21 5.28243 21 6.14829C21 7.01971 20.6917 7.76229 20.0751 8.376C19.4587 8.98986 18.7176 9.29679 17.8517 9.29679ZM17.8517 21C16.9803 21 16.2377 20.6931 15.624 20.0794C15.0101 19.4657 14.7032 18.7259 14.7032 17.8599C14.7032 16.9884 15.0101 16.2445 15.624 15.6281C16.2377 15.0115 16.9803 14.7032 17.8517 14.7032C18.7231 14.7032 19.4657 15.0115 20.0794 15.6281C20.6931 16.2445 21 16.9884 21 17.8599C21 18.7259 20.6931 19.4657 20.0794 20.0794C19.4657 20.6931 18.7231 21 17.8517 21Z" fill="url(#paint0_linear_96_5641)"/>
</g>
<defs>
<linearGradient id="paint0_linear_96_5641" x1="3" y1="12" x2="21" y2="12" gradientUnits="userSpaceOnUse">
<stop stop-color="#DCE35B"/>
<stop offset="1" stop-color="#45B649"/>
</linearGradient>
</defs>
</svg>
