<svg width="24" height="24" viewBox="0 0 24 24" fill="none" xmlns="http://www.w3.org/2000/svg">
<mask id="mask0_96_5597" style="mask-type:alpha" maskUnits="userSpaceOnUse" x="0" y="0" width="24" height="24">
<rect width="24" height="24" fill="#D9D9D9"/>
</mask>
<g mask="url(#mask0_96_5597)">
<path d="M2.4707 19.3078V17.0845C2.4707 16.5538 2.60437 16.0901 2.8717 15.6933C3.13887 15.2964 3.49362 14.9858 3.93595 14.7615C4.78595 14.3282 5.68337 13.9776 6.6282 13.7098C7.5732 13.4418 8.68737 13.3078 9.9707 13.3078C10.4707 13.3078 10.9357 13.3279 11.3657 13.3683C11.7959 13.4086 12.1975 13.4692 12.5707 13.55L11.2437 14.877C11.0604 14.8437 10.862 14.8238 10.6485 14.8173C10.435 14.8109 10.209 14.8078 9.9707 14.8078C8.78737 14.8078 7.75045 14.9398 6.85995 15.2038C5.96962 15.4679 5.22445 15.7667 4.62445 16.1C4.39745 16.2218 4.23179 16.3642 4.12745 16.527C4.02295 16.6898 3.9707 16.8757 3.9707 17.0845V17.8078H10.0282L11.5282 19.3078H2.4707ZM15.4245 20.0538L12.3207 16.95L13.3745 15.8963L15.4245 17.9463L20.4745 12.8963L21.5282 13.95L15.4245 20.0538ZM9.9707 11.6923C9.0082 11.6923 8.1842 11.3496 7.4987 10.6643C6.81337 9.97876 6.4707 9.15476 6.4707 8.19226C6.4707 7.22976 6.81337 6.40584 7.4987 5.72051C8.1842 5.03501 9.0082 4.69226 9.9707 4.69226C10.9332 4.69226 11.7571 5.03501 12.4425 5.72051C13.1278 6.40584 13.4705 7.22976 13.4705 8.19226C13.4705 9.15476 13.1278 9.97876 12.4425 10.6643C11.7571 11.3496 10.9332 11.6923 9.9707 11.6923ZM9.9707 10.1923C10.5207 10.1923 10.9915 9.99643 11.3832 9.60476C11.7749 9.21309 11.9707 8.74226 11.9707 8.19226C11.9707 7.64226 11.7749 7.17143 11.3832 6.77976C10.9915 6.38809 10.5207 6.19226 9.9707 6.19226C9.4207 6.19226 8.94987 6.38809 8.5582 6.77976C8.16654 7.17143 7.9707 7.64226 7.9707 8.19226C7.9707 8.74226 8.16654 9.21309 8.5582 9.60476C8.94987 9.99643 9.4207 10.1923 9.9707 10.1923Z" fill="url(#paint0_linear_96_5597)"/>
</g>
<defs>
<linearGradient id="paint0_linear_96_5597" x1="2.4707" y1="12.373" x2="21.5282" y2="12.373" gradientUnits="userSpaceOnUse">
<stop stop-color="#DCE35B"/>
<stop offset="1" stop-color="#45B649"/>
</linearGradient>
</defs>
</svg>
